<svg width="375" height="290" viewBox="0 0 375 290" fill="none" xmlns="http://www.w3.org/2000/svg">
<path d="M280.526 125.011C242.551 115.672 139.016 101.896 82.9517 136.689C54.3693 154.427 48.1051 176.741 79.8421 194.274C113.479 212.857 191.513 216.291 277.035 188.604C372.562 157.677 310.22 132.314 280.526 125.011Z" fill="url(#paint0_linear_44_12)" fill-opacity="0.5"/>
<ellipse cx="49.9684" cy="279.819" rx="49.9684" ry="10.1811" fill="#F3F3F3"/>
<ellipse cx="309.127" cy="179.244" rx="29.3929" ry="6.47683" fill="#A7A7A7" fill-opacity="0.2"/>
<ellipse cx="279.735" cy="100.05" rx="20.8422" ry="4.41602" fill="#A7A7A7" fill-opacity="0.14"/>
<ellipse cx="199.038" cy="115.653" rx="25.1176" ry="5.29922" fill="#A7A7A7" fill-opacity="0.14"/>
<path d="M205.232 104.728L207.574 108.149L206.64 108.723L204.361 105.516L199.717 106.244L203.971 104.946L201.692 101.739L196.866 101.111L201.238 100.955L197.997 95.2518L202.109 100.167L203.822 95.5206L202.563 100.951L204.842 104.158L207.607 100.08L205.232 104.728Z" fill="#F9759C"/>
<ellipse cx="1.90932" cy="2.00961" rx="1.90932" ry="2.00961" transform="matrix(-0.94067 0.339323 0.284853 0.958571 209.293 97.5756)" fill="#F9AEC5"/>
<ellipse cx="1.90932" cy="2.00961" rx="1.90932" ry="2.00961" transform="matrix(-0.94067 0.339323 0.284853 0.958571 205.117 92.4463)" fill="#F9AEC5"/>
<ellipse cx="1.90932" cy="2.00961" rx="1.90932" ry="2.00961" transform="matrix(-0.94067 0.339323 0.284853 0.958571 198.894 92.3215)" fill="#F9AEC5"/>
<ellipse cx="1.90932" cy="2.00961" rx="1.90932" ry="2.00961" transform="matrix(-0.94067 0.339323 0.284853 0.958571 197.354 99.0383)" fill="#F9AEC5"/>
<ellipse cx="1.90932" cy="2.00961" rx="1.90932" ry="2.00961" transform="matrix(-0.94067 0.339323 0.284853 0.958571 200.205 104.171)" fill="#F9AEC5"/>
<mask id="mask0_44_12" style="mask-type:alpha" maskUnits="userSpaceOnUse" x="337" y="148" width="34" height="32">
<ellipse cx="8.8318" cy="20.677" rx="8.8318" ry="20.677" transform="matrix(0.589546 0.807735 -0.748486 0.663151 364.587 142.845)" fill="#C4C4C4"/>
</mask>
<g mask="url(#mask0_44_12)">
<ellipse cx="8.8318" cy="20.677" rx="8.8318" ry="20.677" transform="matrix(0.589546 0.807735 -0.748486 0.663151 368.819 148.51)" fill="#F9AEC5"/>
</g>
<mask id="mask1_44_12" style="mask-type:alpha" maskUnits="userSpaceOnUse" x="334" y="130" width="26" height="51">
<ellipse cx="10.0532" cy="25.8425" rx="10.0532" ry="25.8425" transform="matrix(0.923615 0.383323 -0.32351 0.946225 345.651 126.974)" fill="#8D8D8D"/>
</mask>
<g mask="url(#mask1_44_12)">
<ellipse cx="10.0532" cy="25.8425" rx="10.0532" ry="25.8425" transform="matrix(0.923615 0.383323 -0.32351 0.946225 352.445 129.794)" fill="#F9759C"/>
</g>
<path d="M336.208 95.077C337.155 98.9749 336.476 100.563 337.074 101.739C337.299 102.181 337.082 103.173 336.631 103.081C335.702 102.892 334.901 102.122 334.179 100.944C333.085 99.1595 333.405 98.8114 332.539 95.2169C331.672 91.6225 328.761 89.3505 327.852 89.1583C331.804 88.5139 335.261 91.1791 336.208 95.077Z" fill="#F1F5FE"/>
<path d="M336.461 89.9245C338.914 84.4077 343.001 81.9353 344.932 80.4982C345.014 81.6587 344.777 82.6518 344.068 84.9921C343.358 87.3323 341.895 90.1539 339.479 91.8342C341.795 94.3104 337.488 102.479 337.081 103.313C337.078 103.335 337.073 103.352 337.064 103.365C337.041 103.4 337.048 103.381 337.081 103.313C337.166 102.558 333.479 96.6302 336.461 89.9245Z" fill="#6885EF"/>
<path d="M108.567 234.572C100.686 241.764 97.069 257.79 96.0544 264.799C100.545 258.322 114.918 246.118 114.918 246.118C114.918 246.118 130.285 231.834 135.082 224.211C131.048 229.476 118.418 225.581 108.567 234.572Z" fill="#F1F5FE"/>
<path d="M94.174 229.253C89.491 239.265 93.45 257.15 96.0544 264.799C97.4693 256.607 107.091 239.319 107.091 239.319C107.091 239.319 116.086 219.525 117.227 210.039C115.664 216.819 100.028 216.738 94.174 229.253Z" fill="#6785EF"/>
<path d="M115.731 242.778C106.631 245.699 98.8689 258.763 96.0544 264.799C101.883 260.922 118.381 256.562 118.381 256.562C118.381 256.562 136.196 250.626 142.612 245.83C137.526 248.797 127.106 239.128 115.731 242.778Z" fill="#6785EF" fill-opacity="0.6"/>
<path d="M214.726 97.7484C214.726 76.1548 212.435 48.948 190.154 37.4501C167.873 25.9523 139.614 32.5278 128.445 60.5235" stroke="#B2C3FF" stroke-width="2.78633" stroke-linecap="round" stroke-linejoin="round" stroke-dasharray="9.29 13.93"/>
<path d="M292.072 85.135C292.072 52.7426 277.296 17.8287 236.785 5.45513C196.275 -6.91841 134.309 14.6845 122.023 58.37" stroke="#B2C3FF" stroke-width="2.78633" stroke-linecap="round" stroke-linejoin="round" stroke-dasharray="9.29 13.93"/>
<path d="M325.021 147.279C325.021 8.13506 152.738 9.14688 135.426 62.677" stroke="#B2C3FF" stroke-width="2.78633" stroke-linecap="round" stroke-linejoin="round" stroke-dasharray="9.29 13.93"/>
<path d="M95.7327 61.2209C96.7889 55.8652 102.023 52.6529 107.271 54.1396L147.113 65.4275C152.201 66.8689 155.363 72.1886 154.196 77.344L130.513 181.977C129.337 187.174 124.209 190.236 119.074 188.807L82.0834 178.516C77.0738 177.122 73.894 171.957 74.9012 166.85L95.7327 61.2209Z" fill="#F3F3F3"/>
<rect x="0.325666" y="0.542417" width="58.8863" height="123.687" rx="9.18838" transform="matrix(0.964461 0.264226 -0.220152 0.975466 97.2951 51.4357)" fill="white" stroke="#F3F3F3" stroke-width="0.875084"/>
<path d="M93.4396 68.0092L94.2756 68.2382C97.0723 69.0044 98.822 71.9186 98.1836 74.7472L94.1758 92.5052C93.5374 95.3338 90.7527 97.0058 87.956 96.2396L87.12 96.0105L93.4396 68.0092Z" fill="#BBCAFF" fill-opacity="0.48"/>
<path d="M144.758 111.801L143.922 111.572C141.125 110.806 139.375 107.892 140.014 105.063L144.021 87.305C144.66 84.4763 147.445 82.8044 150.241 83.5706L151.077 83.7996L144.758 111.801Z" fill="#BBCAFF" fill-opacity="0.48"/>
<path d="M137.634 107.066C136.996 109.894 134.211 111.566 131.414 110.8L99.335 102.012C96.5383 101.245 94.7886 98.3313 95.427 95.5027L100.563 72.7444C101.202 69.9158 103.986 68.2438 106.783 69.01L138.862 77.7985C141.659 78.5647 143.409 81.4789 142.77 84.3075L137.634 107.066Z" fill="#334891"/>
<rect width="16.6902" height="1.78737" rx="0.893686" transform="matrix(0.962987 0.270658 -0.225512 0.973981 111.618 91.5762)" fill="#D2D9F1"/>
<rect width="26.75" height="1.78737" rx="0.893686" transform="matrix(0.962987 0.270658 -0.225512 0.973981 105.91 93.9452)" fill="#D2D9F1"/>
<rect width="52.703" height="0.512601" transform="matrix(0.964461 0.264226 -0.220152 0.975466 87.9271 107.381)" fill="#F3F3F3"/>
<rect width="52.703" height="0.512601" transform="matrix(0.964461 0.264226 -0.220152 0.975466 84.9929 120.382)" fill="#F3F3F3"/>
<rect width="52.703" height="0.512601" transform="matrix(0.964461 0.264226 -0.220152 0.975466 82.0588 133.383)" fill="#F3F3F3"/>
<rect width="44.7445" height="14.3528" rx="7.17642" transform="matrix(0.964461 0.264226 -0.220152 0.975466 84.2051 142.997)" fill="#F9759C"/>
<ellipse cx="3.7645" cy="4.10081" rx="3.7645" ry="4.10081" transform="matrix(0.964461 0.264226 -0.220152 0.975466 90.0858 110.628)" fill="#B2C3FF"/>
<ellipse cx="3.7645" cy="4.10081" rx="3.7645" ry="4.10081" transform="matrix(0.964461 0.264226 -0.220152 0.975466 87.1517 123.628)" fill="#B2C3FF"/>
<rect width="34.8216" height="2.05041" transform="matrix(0.964461 0.264226 -0.220152 0.975466 99.3908 114.239)" fill="#E2E2E2"/>
<rect width="18.3519" height="2.05041" transform="matrix(0.964461 0.264226 -0.220152 0.975466 98.375 118.739)" fill="#E2E2E2"/>
<rect width="34.8216" height="2.05041" transform="matrix(0.964461 0.264226 -0.220152 0.975466 96.4566 127.239)" fill="#E2E2E2"/>
<rect width="18.3519" height="2.05041" transform="matrix(0.964461 0.264226 -0.220152 0.975466 95.4409 131.74)" fill="#E2E2E2"/>
<rect width="18.3519" height="2.05041" transform="matrix(0.964461 0.264226 -0.220152 0.975466 91.5131 168.36)" fill="#E2E2E2"/>
<path d="M110.221 158.038C110.524 157.856 110.616 157.45 110.425 157.133L107.316 151.955C107.125 151.637 106.725 151.527 106.421 151.709C106.117 151.892 106.026 152.297 106.217 152.615L108.98 157.217L104.582 159.858C104.278 160.04 104.187 160.446 104.378 160.763C104.568 161.081 104.969 161.191 105.273 161.009L110.221 158.038ZM98.8386 155.119L109.731 158.103L110.02 156.822L99.1276 153.838L98.8386 155.119Z" fill="white"/>
<path d="M33.8827 209.305C33.8827 221.749 36.1735 228.049 34.5672 239.848C33.1101 250.552 27.7222 273.887 27.7222 273.887C28.4067 274.642 29.4334 274.264 31.1447 274.264C32.8559 274.264 33.8827 274.642 34.5672 274.264L43.4657 239.848L45.1769 225.519L54.0044 238.657L55.435 273.031C55.435 273.031 55.7867 273.786 57.8402 273.786C59.8937 273.786 60.9204 273.031 60.9204 273.031C60.9204 273.031 64.0031 241.195 63.6608 236.293C63.3186 231.391 54.7599 209.807 54.7599 207.922V201.386H35.5939C35.5939 201.386 33.8827 206.412 33.8827 209.305Z" fill="#3C56C6"/>
<path d="M27.0993 216.16C26.7571 214.652 26.757 211.887 27.0993 210.504C28.0119 209.75 29.8373 208.468 29.8373 209.373C29.8373 210.504 30.864 212.012 31.8908 214.652C32.7122 216.764 31.5485 218.423 29.8373 218.8C28.126 219.177 27.4415 217.669 27.0993 216.16Z" fill="#FCD8E3"/>
<path d="M42.7812 156.891C42.7812 157.494 42.3248 159.656 42.0967 160.662C42.553 161.29 43.8764 162.547 45.5192 162.547C47.162 162.547 48.4853 161.542 48.9417 161.039C48.7135 159.656 48.4625 156.891 49.2839 156.891C50.1053 156.891 51.6797 155.383 52.3642 154.628C52.7064 152.366 51.6797 146.71 51.3374 141.431C50.9952 136.152 44.8347 134.266 42.0967 136.529C39.3587 138.791 38.3319 143.316 38.3319 147.464C38.3319 151.612 42.7812 156.137 42.7812 156.891Z" fill="#FCD8E3"/>
<path d="M98.971 152.008C98.0919 153.608 95.8128 156.21 94.4512 157.06C94.0765 156.999 92.4682 160.681 92.4682 160.681L89.388 157.664C89.388 157.664 91.0841 155.628 91.2548 155.442C92.1316 154.484 92.4308 152.24 93.6067 149.037C93.974 148.037 95.5708 145.196 96.233 144.843C97.2672 144.293 96.8501 145.57 98.2865 147.86C99.723 150.15 99.8502 150.408 98.971 152.008Z" fill="#FCD8E3"/>
<path d="M54.7197 204.375C54.7197 204.375 37.3051 205.816 35.5938 202.799V191.372V180.27L31.8907 190.519L30.1794 209.75C29.2668 210.63 27.0992 210.881 26.7569 209.75C26.2907 208.209 24.7034 189.388 25.0457 187.125C25.3879 184.863 33.2597 167.517 33.2597 167.517L40.0431 162.924L41.4121 159.908C41.8684 160.285 42.9865 160.285 45.1769 160.285C47.3673 160.285 49.1697 160.285 49.6261 159.908L50.3106 162.924L57.4978 165.187C57.4978 165.187 69.8188 174.237 71.1878 174.237C72.5568 174.237 86.2468 160.662 86.2468 160.662L89.327 157.268L93.0918 160.662L90.696 165.187C90.696 165.187 74.268 185.926 72.5568 185.926C70.8455 185.926 56.1289 179.139 56.1289 179.139C55.9007 179.139 55.4443 181.175 55.4443 183.287C55.4443 189.332 54.7197 204.375 54.7197 204.375Z" fill="#B2C3FF"/>
<path d="M50.3106 162.924C48.6678 164.131 42.5529 163.678 39.7009 163.301C40.1572 162.044 41.1383 159.606 41.4121 159.908C41.7544 160.285 43.8079 160.285 45.5191 160.285C46.8881 160.285 48.8275 160.033 49.6261 159.908L50.3106 162.924Z" fill="#B2C3FF"/>
<path d="M54.0753 279.065C54.0753 278.763 54.6457 274.917 55.1021 273.031L61.2625 273.031C62.3918 274.898 65.9623 276.683 67.7653 277.179C68.8605 277.481 68.9061 279.065 68.792 279.819C66.1681 280.196 63.5898 280.196 60.578 280.196C56.8133 280.196 54.0753 279.442 54.0753 279.065Z" fill="#2B3A7C"/>
<path d="M26.3531 278.755L27.7221 273.099L34.5671 273.476C35.2516 274.985 40.3853 276.493 41.7543 277.624C42.8495 278.529 41.298 280.012 40.3853 280.641H31.8291C30.1863 280.641 27.4939 279.384 26.3531 278.755Z" fill="#2B3A7C"/>
<path d="M37.6473 147.841C37.9211 149.349 40.9557 153.749 42.4388 155.76L47.2304 155.383C47.3445 153.497 47.5726 149.349 47.5726 147.841C47.5726 146.333 49.6261 144.447 50.6529 143.693C51.2233 143.19 52.4326 141.959 52.7064 141.054C53.0486 139.922 52.0219 135.397 50.6529 134.643C49.5577 134.04 48.5994 134.895 48.2571 135.397C48.029 134.895 47.0935 133.663 45.1769 132.758C42.7811 131.627 41.0698 134.643 38.3318 136.906C35.5938 139.168 37.3051 145.956 37.6473 147.841Z" fill="#3049A0"/>
<path d="M202.779 112.284H224.155V116.209C224.155 116.209 222.86 117.637 213.467 117.637C204.074 117.637 202.779 116.209 202.779 116.209V112.284Z" fill="url(#paint1_linear_44_12)"/>
<ellipse cx="213.467" cy="112.284" rx="10.6883" ry="1.78425" fill="#6885EF"/>
<path d="M202.779 108.016H224.155V111.942C224.155 111.942 222.86 113.369 213.467 113.369C204.074 113.369 202.779 111.942 202.779 111.942V108.016Z" fill="url(#paint2_linear_44_12)"/>
<ellipse cx="213.467" cy="108.017" rx="10.6883" ry="1.78425" fill="#6885EF"/>
<path d="M202.779 103.895H224.155V107.82C224.155 107.82 222.86 109.248 213.467 109.248C204.074 109.248 202.779 107.82 202.779 107.82V103.895Z" fill="url(#paint3_linear_44_12)"/>
<ellipse cx="213.467" cy="103.895" rx="10.6883" ry="1.78425" fill="#6885EF"/>
<path d="M204.382 99.7733H225.758V103.699C225.758 103.699 224.463 105.126 215.07 105.126C205.677 105.126 204.382 103.699 204.382 103.699V99.7733Z" fill="url(#paint4_linear_44_12)"/>
<ellipse cx="215.07" cy="99.7733" rx="10.6883" ry="1.78425" fill="#6785EF"/>
<path d="M282.643 97.1884H300.817V100.526C300.817 100.526 299.716 101.739 291.73 101.739C283.745 101.739 282.643 100.526 282.643 100.526V97.1884Z" fill="url(#paint5_linear_44_12)"/>
<ellipse cx="291.73" cy="97.1883" rx="9.08678" ry="1.5169" fill="#6885EF"/>
<path d="M282.643 93.5603H300.817V96.8975C300.817 96.8975 299.716 98.111 291.73 98.111C283.745 98.111 282.643 96.8975 282.643 96.8975V93.5603Z" fill="url(#paint6_linear_44_12)"/>
<ellipse cx="291.73" cy="93.5604" rx="9.08678" ry="1.5169" fill="#6885EF"/>
<path d="M282.643 90.0563H300.817V93.3935C300.817 93.3935 299.716 94.607 291.73 94.607C283.745 94.607 282.643 93.3935 282.643 93.3935V90.0563Z" fill="url(#paint7_linear_44_12)"/>
<ellipse cx="291.73" cy="90.0563" rx="9.08678" ry="1.5169" fill="#6885EF"/>
<path d="M284.006 86.5523H302.18V89.8895C302.18 89.8895 301.079 91.103 293.093 91.103C285.108 91.103 284.006 89.8895 284.006 89.8895V86.5523Z" fill="url(#paint8_linear_44_12)"/>
<ellipse cx="293.093" cy="86.5523" rx="9.08678" ry="1.5169" fill="#6785EF"/>
<path d="M307.524 173.414H338.346V179.074C338.346 179.074 336.478 181.132 322.935 181.132C309.392 181.132 307.524 179.074 307.524 179.074V173.414Z" fill="url(#paint9_linear_44_12)"/>
<ellipse cx="322.935" cy="173.414" rx="15.4111" ry="2.57264" fill="#6885EF"/>
<path d="M307.524 167.261H338.346V172.921C338.346 172.921 336.478 174.979 322.935 174.979C309.392 174.979 307.524 172.921 307.524 172.921V167.261Z" fill="url(#paint10_linear_44_12)"/>
<ellipse cx="322.935" cy="167.261" rx="15.4111" ry="2.57264" fill="#6885EF"/>
<path d="M307.524 161.318H338.346V166.978C338.346 166.978 336.478 169.036 322.935 169.036C309.392 169.036 307.524 166.978 307.524 166.978V161.318Z" fill="url(#paint11_linear_44_12)"/>
<ellipse cx="322.935" cy="161.318" rx="15.4111" ry="2.57264" fill="#6885EF"/>
<path d="M307.524 155.375H338.346V161.035C338.346 161.035 336.478 163.093 322.935 163.093C309.392 163.093 307.524 161.035 307.524 161.035V155.375Z" fill="url(#paint12_linear_44_12)"/>
<ellipse cx="322.935" cy="155.375" rx="15.4111" ry="2.57264" fill="#6885EF"/>
<path d="M309.836 149.432H340.658V155.092C340.658 155.092 338.79 157.15 325.247 157.15C311.704 157.15 309.836 155.092 309.836 155.092V149.432Z" fill="url(#paint13_linear_44_12)"/>
<ellipse cx="325.247" cy="149.432" rx="15.4111" ry="2.57264" fill="#6785EF"/>
<defs>
<linearGradient id="paint0_linear_44_12" x1="155.195" y1="119.687" x2="178.898" y2="194.189" gradientUnits="userSpaceOnUse">
<stop stop-color="#6885EF" stop-opacity="0.43"/>
<stop offset="1" stop-color="#F9AEC5" stop-opacity="0.3"/>
</linearGradient>
<linearGradient id="paint1_linear_44_12" x1="202.779" y1="116.209" x2="224.155" y2="116.209" gradientUnits="userSpaceOnUse">
<stop stop-color="#6785EF"/>
<stop offset="0.497238" stop-color="#B2C3FF"/>
<stop offset="1" stop-color="#6785EF"/>
</linearGradient>
<linearGradient id="paint2_linear_44_12" x1="202.779" y1="111.942" x2="224.155" y2="111.942" gradientUnits="userSpaceOnUse">
<stop stop-color="#6785EF"/>
<stop offset="0.497238" stop-color="#B2C3FF"/>
<stop offset="1" stop-color="#6785EF"/>
</linearGradient>
<linearGradient id="paint3_linear_44_12" x1="202.779" y1="107.82" x2="224.155" y2="107.82" gradientUnits="userSpaceOnUse">
<stop stop-color="#6785EF"/>
<stop offset="0.497238" stop-color="#B2C3FF"/>
<stop offset="1" stop-color="#6785EF"/>
</linearGradient>
<linearGradient id="paint4_linear_44_12" x1="204.382" y1="103.699" x2="225.758" y2="103.699" gradientUnits="userSpaceOnUse">
<stop stop-color="#6785EF"/>
<stop offset="0.497238" stop-color="#B2C3FF"/>
<stop offset="1" stop-color="#6785EF"/>
</linearGradient>
<linearGradient id="paint5_linear_44_12" x1="282.643" y1="100.526" x2="300.817" y2="100.526" gradientUnits="userSpaceOnUse">
<stop stop-color="#6785EF"/>
<stop offset="0.497238" stop-color="#B2C3FF"/>
<stop offset="1" stop-color="#6785EF"/>
</linearGradient>
<linearGradient id="paint6_linear_44_12" x1="282.643" y1="96.8975" x2="300.817" y2="96.8975" gradientUnits="userSpaceOnUse">
<stop stop-color="#6785EF"/>
<stop offset="0.497238" stop-color="#B2C3FF"/>
<stop offset="1" stop-color="#6785EF"/>
</linearGradient>
<linearGradient id="paint7_linear_44_12" x1="282.643" y1="93.3935" x2="300.817" y2="93.3935" gradientUnits="userSpaceOnUse">
<stop stop-color="#6785EF"/>
<stop offset="0.497238" stop-color="#B2C3FF"/>
<stop offset="1" stop-color="#6785EF"/>
</linearGradient>
<linearGradient id="paint8_linear_44_12" x1="284.006" y1="89.8895" x2="302.18" y2="89.8895" gradientUnits="userSpaceOnUse">
<stop stop-color="#6785EF"/>
<stop offset="0.497238" stop-color="#B2C3FF"/>
<stop offset="1" stop-color="#6785EF"/>
</linearGradient>
<linearGradient id="paint9_linear_44_12" x1="307.524" y1="179.074" x2="338.346" y2="179.074" gradientUnits="userSpaceOnUse">
<stop stop-color="#6785EF"/>
<stop offset="0.497238" stop-color="#B2C3FF"/>
<stop offset="1" stop-color="#6785EF"/>
</linearGradient>
<linearGradient id="paint10_linear_44_12" x1="307.524" y1="172.921" x2="338.346" y2="172.921" gradientUnits="userSpaceOnUse">
<stop stop-color="#6785EF"/>
<stop offset="0.497238" stop-color="#B2C3FF"/>
<stop offset="1" stop-color="#6785EF"/>
</linearGradient>
<linearGradient id="paint11_linear_44_12" x1="307.524" y1="166.978" x2="338.346" y2="166.978" gradientUnits="userSpaceOnUse">
<stop stop-color="#6785EF"/>
<stop offset="0.497238" stop-color="#B2C3FF"/>
<stop offset="1" stop-color="#6785EF"/>
</linearGradient>
<linearGradient id="paint12_linear_44_12" x1="307.524" y1="161.035" x2="338.346" y2="161.035" gradientUnits="userSpaceOnUse">
<stop stop-color="#6785EF"/>
<stop offset="0.497238" stop-color="#B2C3FF"/>
<stop offset="1" stop-color="#6785EF"/>
</linearGradient>
<linearGradient id="paint13_linear_44_12" x1="309.836" y1="155.092" x2="340.658" y2="155.092" gradientUnits="userSpaceOnUse">
<stop stop-color="#6785EF"/>
<stop offset="0.497238" stop-color="#B2C3FF"/>
<stop offset="1" stop-color="#6785EF"/>
</linearGradient>
</defs>
</svg>
